<svg xmlns="http://www.w3.org/2000/svg" width="200" height="60" viewBox="0 0 200 60">
  <g id="Group_19" data-name="Group 19" transform="translate(-680 -1988)">
    <path id="Path_46" data-name="Path 46" d="M391.93,103.32h2.176v2.748H391.93Z" transform="translate(425.219 1920.77)" fill="#fff"/>
    <path id="Path_47" data-name="Path 47" d="M413.243,65.569v1.37h-2.72v9.017a2.916,2.916,0,0,0,.221,1.255c.147.3.515.47,1.1.5a12.466,12.466,0,0,0,1.4-.077v1.374a7.162,7.162,0,0,0-.725.025,7.106,7.106,0,0,1-.722.028,2.414,2.414,0,0,1-2.905-2.982V66.946H406.56V65.569h2.334V61.56h1.63v4.009Z" transform="translate(415.703 1947.919)" fill="#fff"/>
    <path id="Path_48" data-name="Path 48" d="M434.6,72.65V75.8h.053a5.1,5.1,0,0,1,1.927-2.513,5.04,5.04,0,0,1,3.14-.817V74.1a5.022,5.022,0,0,0-2.022.3,4.609,4.609,0,0,0-1.566,1,4.53,4.53,0,0,0-1.023,1.542,5.152,5.152,0,0,0-.35,1.956v7.125H433.1V72.65Z" transform="translate(398.45 1940.83)" fill="#fff"/>
    <path id="Path_49" data-name="Path 49" d="M456.075,74.363a3.8,3.8,0,0,1,1.128-1.4,4.692,4.692,0,0,1,1.672-.8A8.014,8.014,0,0,1,461,71.9a9.408,9.408,0,0,1,1.752.168,4.234,4.234,0,0,1,1.577.634,3.448,3.448,0,0,1,1.143,1.307,4.762,4.762,0,0,1,.438,2.19v7.1a.86.86,0,0,0,.96.985,1.258,1.258,0,0,0,.519-.105v1.374c-.193.035-.35.063-.5.077a4.809,4.809,0,0,1-.557.028,2.453,2.453,0,0,1-1-.168,1.321,1.321,0,0,1-.582-.48,1.752,1.752,0,0,1-.273-.739,6.46,6.46,0,0,1-.063-.943h-.053a11.115,11.115,0,0,1-.894,1.149,4.289,4.289,0,0,1-1.013.845,4.7,4.7,0,0,1-1.269.519,7.033,7.033,0,0,1-1.7.179,6.676,6.676,0,0,1-1.752-.221,3.9,3.9,0,0,1-1.426-.7,3.375,3.375,0,0,1-.957-1.22A4.012,4.012,0,0,1,455,82.122a3.435,3.435,0,0,1,.624-2.187,3.932,3.932,0,0,1,1.644-1.206,9.371,9.371,0,0,1,2.306-.582q1.283-.168,2.6-.326a8.538,8.538,0,0,0,.908-.13,1.521,1.521,0,0,0,.645-.27,1.248,1.248,0,0,0,.4-.533,2.292,2.292,0,0,0,.144-.88A2.961,2.961,0,0,0,464,74.65a2.156,2.156,0,0,0-.75-.841,3.042,3.042,0,0,0-1.115-.428,7.583,7.583,0,0,0-1.36-.119,4.139,4.139,0,0,0-2.541.739,2.949,2.949,0,0,0-1.051,2.369h-1.633A5.446,5.446,0,0,1,456.075,74.363Zm8.162,3.988a.936.936,0,0,1-.6.417,6.585,6.585,0,0,1-.778.179q-1.051.182-2.138.326a11.5,11.5,0,0,0-2.008.428,3.971,3.971,0,0,0-1.49.813,1.949,1.949,0,0,0-.582,1.517,2.366,2.366,0,0,0,.245,1.1,2.713,2.713,0,0,0,.662.831,2.859,2.859,0,0,0,.957.529,3.469,3.469,0,0,0,1.114.182,5.646,5.646,0,0,0,1.787-.284,4.381,4.381,0,0,0,1.489-.831,3.964,3.964,0,0,0,1.4-3.084V78.351Z" transform="translate(384.166 1941.196)" fill="#fff"/>
    <path id="Path_50" data-name="Path 50" d="M505.4,76.877V74.336h-.053a3.778,3.778,0,0,1-.764,1.192,4.906,4.906,0,0,1-1.153.922,5.958,5.958,0,0,1-1.4.582,5.337,5.337,0,0,1-1.465.207,5.936,5.936,0,0,1-2.656-.557,5.327,5.327,0,0,1-1.878-1.528,6.551,6.551,0,0,1-1.111-2.253,10.236,10.236,0,0,1,0-5.415,6.55,6.55,0,0,1,1.111-2.253,5.48,5.48,0,0,1,1.878-1.542,5.842,5.842,0,0,1,2.656-.568,6.01,6.01,0,0,1,1.465.179,5.013,5.013,0,0,1,1.332.557,4.729,4.729,0,0,1,1.1.922,3.83,3.83,0,0,1,.736,1.269h.053V58.38h1.633v18.5Zm-8.937-4.612a5.671,5.671,0,0,0,.778,1.826A4.262,4.262,0,0,0,498.6,75.4a3.754,3.754,0,0,0,1.994.5,4.4,4.4,0,0,0,2.19-.5,4.324,4.324,0,0,0,1.451-1.311,5.417,5.417,0,0,0,.789-1.826,8.762,8.762,0,0,0,0-4.118,5.449,5.449,0,0,0-.8-1.84A4.313,4.313,0,0,0,502.768,65a4.363,4.363,0,0,0-2.19-.508,3.722,3.722,0,0,0-1.994.508,4.25,4.25,0,0,0-1.36,1.307,5.705,5.705,0,0,0-.764,1.826A8.76,8.76,0,0,0,496.46,72.265Z" transform="translate(358.472 1949.986)" fill="#fff"/>
    <path id="Path_51" data-name="Path 51" d="M539.368,81.206a5.016,5.016,0,0,0,.792,1.7,4.456,4.456,0,0,0,1.374,1.241,3.817,3.817,0,0,0,1.994.494,3.991,3.991,0,0,0,2.8-.932,4.907,4.907,0,0,0,1.4-2.488h1.633a6.526,6.526,0,0,1-1.9,3.5,5.69,5.69,0,0,1-3.925,1.244,6.217,6.217,0,0,1-2.734-.557,5.036,5.036,0,0,1-1.878-1.528,6.682,6.682,0,0,1-1.076-2.253,10.32,10.32,0,0,1-.35-2.705,9.811,9.811,0,0,1,.35-2.593,6.964,6.964,0,0,1,1.076-2.264,5.411,5.411,0,0,1,1.878-1.609,5.807,5.807,0,0,1,2.734-.606,5.274,5.274,0,0,1,4.6,2.345A7.012,7.012,0,0,1,549.16,76.6a10.572,10.572,0,0,1,.259,2.758h-10.3a7.179,7.179,0,0,0,.245,1.843Zm8.085-4.983a4.907,4.907,0,0,0-.845-1.517,4,4,0,0,0-6.189,0,5.3,5.3,0,0,0-.869,1.528,7.47,7.47,0,0,0-.427,1.777h8.653A5.96,5.96,0,0,0,547.453,76.222Z" transform="translate(330.574 1941.229)" fill="#fff"/>
    <path id="Path_52" data-name="Path 52" d="M361.515,11.817l2.877-.1a2.858,2.858,0,0,0,2.551-3.056V6.427h-3.217L369.26,0l5.562,6.427h-3.091c.585,10.563-7.321,9.813-7.321,9.813h-2.93Z" transform="translate(445.002 1988)" fill="#fff"/>
    <path id="Path_53" data-name="Path 53" d="M111.086,33.22h4.661V48.472c0,8.456-4.17,12.438-14.768,12.438-10.514,0-14.719-3.981-14.719-12.438V33.22h4.906V48.472c0,5.488,2.453,7.742,9.956,7.742s9.963-2.253,9.963-7.742Z" transform="translate(623.918 1966.355)" fill="#fff"/>
    <path id="Path_54" data-name="Path 54" d="M213.838,60.384l-5.222-19.2-7.742,17.768a2.57,2.57,0,0,1-4.906,0l-7.71-17.768-5.222,19.2h-4.7l7.009-25.7a2.257,2.257,0,0,1,2.369-1.956,2.579,2.579,0,0,1,2.4,1.616l8.411,19.314,8.411-19.314a2.432,2.432,0,0,1,2.292-1.616,2.276,2.276,0,0,1,2.292,1.956l6.988,25.7Z" transform="translate(564.045 1966.673)" fill="#fff"/>
    <path id="Path_55" data-name="Path 55" d="M0,60.534V55.761H9.995c6.385,0,8.979-2.366,8.979-7.664V33.22h4.773V48.1c0,8.453-4.248,12.438-13.752,12.438Z" transform="translate(680 1966.355)" fill="#fff"/>
    <path id="Path_56" data-name="Path 56" d="M309.919,33.22H305.17V60.534H309.9V37.99h.014Z" transform="translate(481.616 1966.355)" fill="#fff"/>
    <path id="Path_57" data-name="Path 57" d="M330.224,33.22h-4.664a2.31,2.31,0,0,0-2.31,2.309v.151a2.31,2.31,0,0,0,2.31,2.309h4.664c3.343,0,5.334,1.991,5.334,5.148,0,3.08-1.991,5.183-5.334,5.183H315.2c-1.276,0-1.016,1.051-1.016,2.313h0c0,1.276-.259,2.309,1.016,2.309h15.027c6.308,0,9.992-4.058,9.992-9.956C340.2,37,336.532,33.22,330.224,33.22Z" transform="translate(475.753 1966.368)" fill="#fff"/>
    <g id="Group_18" data-name="Group 18" transform="translate(680 2042.13)">
      <path id="Path_69" data-name="Path 69" d="M251.36,157.931a2.759,2.759,0,0,1,2.86-2.891,3.224,3.224,0,0,1,1.57.5.1.1,0,0,1,.021.144l-.428.61a.088.088,0,0,1-.14.025,1.752,1.752,0,0,0-1.016-.35c-2.5,0-2.5,3.9,0,3.9.308,0,.929-.049.929-.477v-.081a.095.095,0,0,1,.1-.1h.753a.095.095,0,0,1,.1.1v.729a.238.238,0,0,1-.077.168,3.154,3.154,0,0,1-1.815.6A2.739,2.739,0,0,1,251.36,157.931Zm2.5.529v-.68a.1.1,0,0,1,.1-.105h2.054a.1.1,0,0,1,.1.105v.68a.095.095,0,0,1-.1.1h-2.054a.095.095,0,0,1-.1-.1Z" transform="translate(-251.36 -155.024)" fill="#ede811"/>
      <path id="Path_70" data-name="Path 70" d="M272.429,160.819v-5.4a.035.035,0,0,1,.039-.039h1.942a1.649,1.649,0,0,1,.767,3.105.172.172,0,0,0-.081.27l1.458,2.1c.039.056,0,.088-.049.088h-.925a.2.2,0,0,1-.147-.088l-1.419-2.043a.35.35,0,0,1-.063-.182v-.7a.095.095,0,0,1,.1-.1h.144a.782.782,0,1,0,0-1.546h-.578a.214.214,0,0,0-.221.231v4.307a.1.1,0,0,1-.105.105h-.743a.1.1,0,0,1-.119-.105Z" transform="translate(-265.045 -155.245)" fill="#ede811"/>
      <path id="Path_71" data-name="Path 71" d="M293.693,155a2.9,2.9,0,1,1-2.86,2.9,2.762,2.762,0,0,1,2.86-2.9Zm0,4.836a1.942,1.942,0,1,0-1.924-1.938,1.854,1.854,0,0,0,1.924,1.945Zm-.648-2.012.578-.578a.095.095,0,0,1,.14,0l.578.578a.1.1,0,0,1,0,.144l-.578.578a.091.091,0,0,1-.14,0l-.578-.578a.088.088,0,0,1-.007-.137Z" transform="translate(-276.998 -154.995)" fill="#ede811"/>
      <path id="Path_72" data-name="Path 72" d="M313.729,155.38h.8a.151.151,0,0,1,.14.095l1.314,3.154c.025.067.067.1.1.1s.053-.032.084-.1l1.142-2.579a.137.137,0,0,1,.119-.074.133.133,0,0,1,.119.074l1.717,3.855a.252.252,0,0,1,0,.189l-.35.824a.126.126,0,0,1-.112.07.13.13,0,0,1-.119-.07l-1.178-2.716c-.025-.056-.056-.088-.088-.088s-.063.025-.088.088l-1.181,2.716a.123.123,0,0,1-.109.07.126.126,0,0,1-.119-.07l-2.267-5.457C313.645,155.419,313.666,155.38,313.729,155.38Zm5.393,2.646,1.069-2.551a.158.158,0,0,1,.144-.095h.8c.063,0,.088.039.063.095l-1.535,3.715c-.025.056-.056.056-.081,0l-.452-.974a.291.291,0,0,1-.007-.189Z" transform="translate(-291.822 -155.245)" fill="#ede811"/>
      <path id="Path_73" data-name="Path 73" d="M351.116,155.38h.8a.151.151,0,0,1,.14.095l1.314,3.154c.025.067.067.1.1.1s.053-.032.084-.1l1.142-2.579a.137.137,0,0,1,.119-.074.133.133,0,0,1,.119.074l1.139,2.579c.032.067.063.1.095.1s.063-.032.088-.1l1.321-3.154a.158.158,0,0,1,.144-.095h.792c.063,0,.088.039.063.095l-2.264,5.457a.126.126,0,0,1-.112.07.13.13,0,0,1-.119-.07l-1.178-2.716c-.025-.056-.056-.088-.088-.088s-.063.025-.088.088l-1.181,2.716a.123.123,0,0,1-.109.07.126.126,0,0,1-.119-.07l-2.267-5.457C351.028,155.419,351.053,155.38,351.116,155.38Z" transform="translate(-316.109 -155.245)" fill="#ede811"/>
      <path id="Path_74" data-name="Path 74" d="M379.581,155.379h.746a.095.095,0,0,1,.1.1v5.337a.1.1,0,0,1-.1.105h-.746a.1.1,0,0,1-.1-.105v-5.337a.095.095,0,0,1,.1-.1Z" transform="translate(-334.579 -155.244)" fill="#ede811"/>
      <path id="Path_75" data-name="Path 75" d="M389,156.161v-.68a.095.095,0,0,1,.1-.1h4.356a.095.095,0,0,1,.1.1v.68a.095.095,0,0,1-.1.105h-1.482a.214.214,0,0,0-.228.221v4.332a.1.1,0,0,1-.1.105H390.9a.1.1,0,0,1-.1-.105v-4.332a.21.21,0,0,0-.224-.221H389.1a.095.095,0,0,1-.1-.105Z" transform="translate(-340.762 -155.244)" fill="#ede811"/>
      <path id="Path_76" data-name="Path 76" d="M408.961,155.379h.747a.095.095,0,0,1,.1.1v2a.21.21,0,0,0,.224.221h2.2a.207.207,0,0,0,.221-.221v-2a.1.1,0,0,1,.1-.1h.746a.095.095,0,0,1,.1.1v5.337a.1.1,0,0,1-.1.105h-.746a.1.1,0,0,1-.1-.105v-2a.21.21,0,0,0-.221-.224h-2.2a.21.21,0,0,0-.224.224v2a.1.1,0,0,1-.1.105h-.747a.1.1,0,0,1-.1-.105v-5.337a.095.095,0,0,1,.1-.1Z" transform="translate(-353.663 -155.244)" fill="#ede811"/>
      <path id="Path_77" data-name="Path 77" d="M438.515,160.677l2.5-5.457a.144.144,0,0,1,.119-.07.123.123,0,0,1,.112.07l2.5,5.457c.025.056,0,.1-.063.1h-.775a.172.172,0,0,1-.151-.1l-.224-.48a.35.35,0,0,0-.315-.2h-2.176a.351.351,0,0,0-.319.2l-.221.48a.168.168,0,0,1-.144.1h-.782C438.515,160.775,438.494,160.733,438.515,160.677Zm1.941-1.567h1.377c.133,0,.182-.081.126-.207l-.7-1.553c-.032-.063-.067-.095-.1-.095s-.063.032-.095.095l-.718,1.553C440.268,159.03,440.324,159.11,440.457,159.11Z" transform="translate(-372.921 -155.096)" fill="#ede811"/>
      <path id="Path_78" data-name="Path 78" d="M457.159,156.161v-.68a.095.095,0,0,1,.1-.1h4.356a.095.095,0,0,1,.1.1v.68a.095.095,0,0,1-.1.105h-1.482a.214.214,0,0,0-.228.221v4.332a.1.1,0,0,1-.105.105h-.743a.1.1,0,0,1-.1-.105v-4.332a.21.21,0,0,0-.224-.221H457.26a.095.095,0,0,1-.1-.105Z" transform="translate(-385.035 -155.244)" fill="#ede811"/>
      <path id="Path_79" data-name="Path 79" d="M476.089,156.161v-.68a.1.1,0,0,1,.105-.1h4.356a.095.095,0,0,1,.1.1v.68a.095.095,0,0,1-.1.105h-1.482a.214.214,0,0,0-.228.221v4.332a.1.1,0,0,1-.105.105h-.743a.1.1,0,0,1-.105-.105v-4.332a.207.207,0,0,0-.221-.221h-1.472a.1.1,0,0,1-.105-.105Z" transform="translate(-397.332 -155.244)" fill="#ede811"/>
      <path id="Path_80" data-name="Path 80" d="M496.041,155.379h.746a.095.095,0,0,1,.1.1v5.337a.1.1,0,0,1-.1.105h-.746a.1.1,0,0,1-.1-.105v-5.337a.095.095,0,0,1,.1-.1Z" transform="translate(-410.225 -155.244)" fill="#ede811"/>
      <path id="Path_81" data-name="Path 81" d="M505.469,156.161v-.68a.1.1,0,0,1,.105-.1h4.356a.095.095,0,0,1,.1.1v.68a.095.095,0,0,1-.1.105h-1.472a.214.214,0,0,0-.228.221v4.332a.1.1,0,0,1-.105.105h-.753a.1.1,0,0,1-.105-.105v-4.332a.207.207,0,0,0-.221-.221h-1.472a.1.1,0,0,1-.105-.105Z" transform="translate(-416.415 -155.244)" fill="#ede811"/>
      <path id="Path_82" data-name="Path 82" d="M527.327,161.113a2.183,2.183,0,0,1-2.243-2.3v-3.336a.095.095,0,0,1,.1-.1h.747a.095.095,0,0,1,.1.1v3.336a1.293,1.293,0,0,0,2.583,0v-3.336a.095.095,0,0,1,.1-.1h.747a.1.1,0,0,1,.1.1v3.336a2.176,2.176,0,0,1-2.239,2.3Z" transform="translate(-429.154 -155.244)" fill="#ede811"/>
      <path id="Path_83" data-name="Path 83" d="M545.491,155.379h1.766a2.769,2.769,0,0,1,0,5.527h-1.766a.1.1,0,0,1-.1-.105v-5.32a.095.095,0,0,1,.1-.1Zm.848,4.423a.207.207,0,0,0,.221.221h.659a1.884,1.884,0,0,0-.231-3.753h-.428a.207.207,0,0,0-.221.221Z" transform="translate(-442.345 -155.244)" fill="#ede811"/>
      <path id="Path_84" data-name="Path 84" d="M565.52,155.48a.095.095,0,0,1,.105-.1h3.382a.095.095,0,0,1,.1.1v.68a.095.095,0,0,1-.1.105h-2.313a.21.21,0,0,0-.224.221v1a.21.21,0,0,0,.224.221h1.752a.095.095,0,0,1,.1.105v.68a.095.095,0,0,1-.1.1h-1.752a.21.21,0,0,0-.224.224v.985a.207.207,0,0,0,.224.221h2.313a.1.1,0,0,1,.1.105v.68a.1.1,0,0,1-.1.105h-3.382a.1.1,0,0,1-.105-.105Z" transform="translate(-455.421 -155.244)" fill="#ede811"/>
    </g>
  </g>
</svg>
