<svg xmlns="http://www.w3.org/2000/svg" width="30.326" height="30.329" viewBox="0 0 30.326 30.329">
  <path id="Path_2717" data-name="Path 2717" d="M118.614,33.431h-.023a.689.689,0,0,0-.657.616c-1.511,7.724-5.713,12.506-13.848,13.86a.689.689,0,0,0-.612.537h0c0,.02-.008.041-.011.062l0,.02c0,.015,0,.03,0,.045s0,.023,0,.035,0,.02,0,.03,0,.033.005.05,0,.01,0,.015a.688.688,0,0,0,.626.581c8.129,1.354,12.329,6.133,13.842,13.851h0a.689.689,0,0,0,.624.622h0l.044,0h.047a.689.689,0,0,0,.657-.615c1.515-7.725,5.713-12.507,13.848-13.861h0a.689.689,0,0,0,.613-.535V48.74c0-.019.007-.038.01-.058s0-.013,0-.02,0-.03,0-.045,0-.023,0-.035,0-.02,0-.03,0-.033-.005-.05,0-.01,0-.015c0-.021-.008-.043-.013-.064a.689.689,0,0,0-.612-.517c-8.129-1.356-12.327-6.135-13.842-13.853a.689.689,0,0,0-.625-.621l-.044,0h-.025Z" transform="translate(-103.457 -33.429)" fill="#ebbc9a" fill-rule="evenodd"/>
</svg>
