<svg xmlns="http://www.w3.org/2000/svg" width="22.605" height="22.605" viewBox="0 0 22.605 22.605">
  <path id="Path_2720" data-name="Path 2720" d="M111.727,33.43h-.012a.376.376,0,0,0-.358.336c-.825,4.215-3.117,6.824-7.556,7.562a.376.376,0,0,0-.334.293h0c0,.011,0,.022-.006.034v.011c0,.008,0,.016,0,.024s0,.013,0,.019,0,.011,0,.016,0,.018,0,.027v.008a.376.376,0,0,0,.341.317c4.436.739,6.727,3.346,7.553,7.558h0a.376.376,0,0,0,.341.339h0l.024,0h.026a.376.376,0,0,0,.359-.336c.827-4.215,3.117-6.824,7.556-7.563h0a.376.376,0,0,0,.334-.292v0c0-.01,0-.021.006-.032v-.011c0-.008,0-.016,0-.025s0-.013,0-.019,0-.011,0-.016,0-.018,0-.027v-.008c0-.012,0-.023-.007-.035a.376.376,0,0,0-.334-.282c-4.436-.74-6.726-3.347-7.553-7.559a.376.376,0,0,0-.341-.339h-.038Z" transform="translate(-106.311 31.052) rotate(-30)" fill="#9ad5eb" fill-rule="evenodd"/>
</svg>
